<mxfile host="app.diagrams.net" modified="2023-11-19T02:11:16.535Z" agent="Mozilla/5.0 (Windows NT 10.0; Win64; x64) AppleWebKit/537.36 (KHTML, like Gecko) Chrome/119.0.0.0 Safari/537.36" etag="V3WghFAEQu5qgtZA_ats" version="22.1.3" type="github">
  <diagram id="C5RBs43oDa-KdzZeNtuy" name="lab2">
    <mxGraphModel dx="1635" dy="638" grid="0" gridSize="10" guides="1" tooltips="1" connect="1" arrows="1" fold="1" page="0" pageScale="1" pageWidth="827" pageHeight="1169" background="none" math="0" shadow="0">
      <root>
        <mxCell id="WIyWlLk6GJQsqaUBKTNV-0" />
        <mxCell id="WIyWlLk6GJQsqaUBKTNV-1" parent="WIyWlLk6GJQsqaUBKTNV-0" />
        <mxCell id="WIyWlLk6GJQsqaUBKTNV-2" value="" style="rounded=0;html=1;jettySize=auto;orthogonalLoop=1;fontSize=11;endArrow=block;endFill=0;endSize=8;strokeWidth=1;shadow=0;labelBackgroundColor=none;edgeStyle=orthogonalEdgeStyle;entryX=0.5;entryY=0;entryDx=0;entryDy=0;" parent="WIyWlLk6GJQsqaUBKTNV-1" source="WIyWlLk6GJQsqaUBKTNV-3" target="DoFTSAxEe7CcOIMFSdf3-3" edge="1">
          <mxGeometry relative="1" as="geometry">
            <mxPoint x="115" y="176" as="targetPoint" />
          </mxGeometry>
        </mxCell>
        <mxCell id="DoFTSAxEe7CcOIMFSdf3-1" style="edgeStyle=orthogonalEdgeStyle;rounded=0;orthogonalLoop=1;jettySize=auto;html=1;entryX=0;entryY=0.5;entryDx=0;entryDy=0;" edge="1" parent="WIyWlLk6GJQsqaUBKTNV-1" source="WIyWlLk6GJQsqaUBKTNV-3" target="DoFTSAxEe7CcOIMFSdf3-2">
          <mxGeometry relative="1" as="geometry">
            <mxPoint x="231.4000244140625" y="108" as="targetPoint" />
          </mxGeometry>
        </mxCell>
        <mxCell id="WIyWlLk6GJQsqaUBKTNV-3" value="data.empty or writer.available_capacity() == 0" style="rounded=1;whiteSpace=wrap;html=1;fontSize=12;glass=0;strokeWidth=1;shadow=0;" parent="WIyWlLk6GJQsqaUBKTNV-1" vertex="1">
          <mxGeometry x="29" y="88" width="172" height="40" as="geometry" />
        </mxCell>
        <mxCell id="WIyWlLk6GJQsqaUBKTNV-4" value="" style="rounded=0;html=1;jettySize=auto;orthogonalLoop=1;fontSize=11;endArrow=block;endFill=0;endSize=8;strokeWidth=1;shadow=0;labelBackgroundColor=none;edgeStyle=orthogonalEdgeStyle;exitX=0.5;exitY=1;exitDx=0;exitDy=0;" parent="WIyWlLk6GJQsqaUBKTNV-1" source="DoFTSAxEe7CcOIMFSdf3-3" edge="1">
          <mxGeometry y="20" relative="1" as="geometry">
            <mxPoint as="offset" />
            <mxPoint x="115" y="256" as="sourcePoint" />
            <mxPoint x="115" y="260" as="targetPoint" />
          </mxGeometry>
        </mxCell>
        <mxCell id="WIyWlLk6GJQsqaUBKTNV-5" value="" style="edgeStyle=orthogonalEdgeStyle;rounded=0;html=1;jettySize=auto;orthogonalLoop=1;fontSize=11;endArrow=block;endFill=0;endSize=8;strokeWidth=1;shadow=0;labelBackgroundColor=none;exitX=1;exitY=0.5;exitDx=0;exitDy=0;" parent="WIyWlLk6GJQsqaUBKTNV-1" source="DoFTSAxEe7CcOIMFSdf3-3" target="WIyWlLk6GJQsqaUBKTNV-7" edge="1">
          <mxGeometry y="10" relative="1" as="geometry">
            <mxPoint as="offset" />
            <mxPoint x="165" y="216" as="sourcePoint" />
          </mxGeometry>
        </mxCell>
        <mxCell id="WIyWlLk6GJQsqaUBKTNV-7" value="discarded" style="rounded=1;whiteSpace=wrap;html=1;fontSize=12;glass=0;strokeWidth=1;shadow=0;" parent="WIyWlLk6GJQsqaUBKTNV-1" vertex="1">
          <mxGeometry x="236.5" y="195" width="77" height="34" as="geometry" />
        </mxCell>
        <mxCell id="WIyWlLk6GJQsqaUBKTNV-8" value="" style="rounded=0;html=1;jettySize=auto;orthogonalLoop=1;fontSize=11;endArrow=block;endFill=0;endSize=8;strokeWidth=1;shadow=0;labelBackgroundColor=none;edgeStyle=orthogonalEdgeStyle;" parent="WIyWlLk6GJQsqaUBKTNV-1" edge="1">
          <mxGeometry x="0.3333" y="20" relative="1" as="geometry">
            <mxPoint as="offset" />
            <mxPoint x="120" y="463" as="sourcePoint" />
            <mxPoint x="120" y="488" as="targetPoint" />
            <Array as="points">
              <mxPoint x="120" y="476" />
              <mxPoint x="120" y="476" />
            </Array>
          </mxGeometry>
        </mxCell>
        <mxCell id="DoFTSAxEe7CcOIMFSdf3-0" value="Insert函数" style="text;html=1;align=center;verticalAlign=middle;resizable=0;points=[];autosize=1;strokeColor=none;fillColor=none;" vertex="1" parent="WIyWlLk6GJQsqaUBKTNV-1">
          <mxGeometry x="-80" y="37" width="72" height="26" as="geometry" />
        </mxCell>
        <mxCell id="DoFTSAxEe7CcOIMFSdf3-2" value="return" style="rounded=1;whiteSpace=wrap;html=1;fontSize=12;glass=0;strokeWidth=1;shadow=0;" vertex="1" parent="WIyWlLk6GJQsqaUBKTNV-1">
          <mxGeometry x="226" y="89.5" width="73" height="37" as="geometry" />
        </mxCell>
        <mxCell id="DoFTSAxEe7CcOIMFSdf3-3" value="data is not in [first_unassembled_index, first_unacceptable)" style="rounded=1;whiteSpace=wrap;html=1;fontSize=12;glass=0;strokeWidth=1;shadow=0;" vertex="1" parent="WIyWlLk6GJQsqaUBKTNV-1">
          <mxGeometry x="29" y="192" width="172" height="40" as="geometry" />
        </mxCell>
        <mxCell id="DoFTSAxEe7CcOIMFSdf3-6" value="" style="shape=image;verticalLabelPosition=bottom;labelBackgroundColor=default;verticalAlign=top;aspect=fixed;imageAspect=0;image=data:image/png,iVBORw0KGgoAAAANSUhEUgAAAigAAAEqCAYAAAA/LasTAAAgAElEQVR4Ae2dscv9unnH/V/kDyh0ytIp4LHcqdBCxtLOTrfCHbqVLN1C4EwdA3fK2sncLp0uHUppAhky+FIIdGhLAqF0aChFRZJly7J8LNmWjyR/Xnh/r48tPXr0eR5J3+Oj418j+IEABCAAAQhAAAKZEWgy8wd3IAABCEAAAhCAgECgkAQQgAAEIAABCGRHAIGSXUhwCAIQgAAEIAABBAo5AAEIQAACEIBAdgQQKNmFBIcgAAEIQAACEECgkAMQgAAEIAABCGRHAIGSXUhwCAIQgAAEIAABBAo5AAEIQAACEIBAdgQQKNmFBIcgAAEIQAACEECgkAMQgAAEIAABCGRHAIGSXUhwCAIQgAAEIAABBAo5AAEIQAACEIBAdgQQKNmFBIcgAAEIQAACEECgkAMQgAAEIAABCGRHAIGSXUhwCAIQgAAEIAABBAo5AAEIQAACEIBAdgQQKNmFBIcgAAEIQAACEECgkAMQgAAEIAABCGRHAIGSXUhwCAIQgAAEIAABBAo5AAEIQAACEIBAdgQQKNmFBIcgAAEIQAACEECgkAMQgAAEIAABCGRHAIGSXUhwCAIQgAAEIAABBAo5AAEIQAACEIBAdgQQKNmFBIcgAAEIQAACEECgkAMQgAAEIAABCGRHAIGSXUhwCAIQgAAEIAABBAo5AAEIQAACEIBAdgQQKNmFBIcgAAEIQAACEECgkAMQgAAEIAABCGRHAIGSXUjeOzS8OtE2jWjkb9cLMbxE27TiNbyvx9VCCRyJ75E6MXhS24/whfEQAevJRY/k7JE6T2acoO8IlARQk5nsOyVM2lcvhmFUJAyiZLizMHwkvkfqxHQ2tf1QXxgPoaQodyRnj9SB9KUEECiX4kxrbHi1omk60adtRlmXbbXclrmB9E4TRybJI3V23FhcTm1/0dj2C8bDNpuarlwyFx3J2SN1agKfQV8QKBkEIdSFvmtE077EHZ/myLYQKKGRSVjuyCR5pE5MF1LbD/SF8RAIqvBil8xFR3L2SJ3CWefmPgIlt4i88ee+CXkQrxaB8iYU9106MkkeqRPTo9T2A31hPASCKrrYRXPRkZw9Uqdo1vk5j0DJLyYrj/St7HFjrNkgazbGegbRfOt7EH0nPxaSdc1G2kG8pnPaZtt2op+2tJjyy/bkftzgH7U3wLTn1FL+NmJhT5XXH10tNj02jWi7jTtGQy+6dumrv+z7/mrvQsrIkoPo7U3K0r/2NbGbeqr6uN+fobc2PG/11YqvKt/acWlFJ/cjTQ2PB1ad5aVA/40Z6Z/dXtuKTibKpv1la6leMR48ZIPHg6yr54Vps73K43kOmK1HlAseF3peGPqX6Ozcata57I+zM3eE9tvK2bvH0cyTo1gCCJRYYh8pP6hNseYdYz/o18oVa+BNro0Lfjd+JGTKy4VM25CTkbYxDP0oWMzeFnm+H++g6M2404bcqYGdg4MC5SX32CixNPpmFvDVx1q96KToUuLgfdn9/oYwkf3V7+SU0OstdmqSdcTYGJNOCsGN/vShfV3YGifxMXaTWHL5+HIixn+VJ1L8Ldszi0rbSWHl9HknJa69rPkzHgzV8PEQnseh+R5aTg6h8RuHL7nZf5lb/lyWcX43F0X0+0PjyESIv8cIIFCOcftILTMhL94xm0Fvn1QCwbdfRQ/oxd0Lb09O3lY9JFB8/qqVUt0Bsn2W74DUwu/6vmo3pL8hZeTcqhfs9b7hcYJeOCgnYn9/pneFrqiQfVn5byZ1edfECEin0yr+7rvKcSGwciLKf+WHY3NqdlwUPipQtDOMB80hfDxs5Jgyo+M67Tvz5aKnXFRejbkalcujsJ780l1W/0b1+0jbnrk1qr+WrxweI4BAOcbtI7ViJ2R7zdQOhy3G5l2Wb1II6vjm5DYvuAvfAhbEMF/c/rmvfd6HlPGIENuU8t8SEONk6PV5vLbov7Hlu/bO1lhP5YVtUNWx73DE+e/NM+OjCuGWWLMK3XDo9XPVd7Mo+wRXSOxlRz4j2O2Qzji1z97cmguNR+v+rXJlVUefCCsXl1f6Dsq7vW0+e0fYr/u93/Z4J9WGvsoln38WQHcesC5xeIwAAuUYt4/UipuQ7QVqdte8A5D7NeTHPP6fI5OCZemQQPH7K0T8hGxP3iH93S+z44M7kanXvgXRCLT3fbXnyOm2+FaojGCw78i4/uwxXJTfmYRlmBflrbjffMh42APu5m3ouA4t59p3/HHzRL3eGBdjVTUW7Vw+JA49frm+OK7Kl6u2V3U8dm07q/L2RY6PEECgHKH2oTpXTMjSdb2XYN5gam+S1V0LnaA2QNwgUMzeGXujn94MvH6Htt/fPSZ6YjL2/X8t0fFuIn47iel2DgkU+yOgVRsx/gfEfmV/Iw8Sn2Y8zIDDxsPOAjuZiyvnHw9mM7c7LqzXU3vzgX6zYN2N3BEoYf0OE9Wrtld5HjOO5j5xdJwAAuU4u9trXjUhLxwfN6EtPxcOWKQWRpwXiQWKnkjkN2g68ernjbxyspKbZ+07KI5nUomoDcDL/jqlVmWMXbsts1F2/jtZURPbxjvF1aQ31ZKfRSj/DwkU+13nqo0Y/3Xs1X+jYLtmH6/s2xfvO2Y8aNbh4yF0XIeWi8krIxI2xsWYNqovdi6/ESjh/TZtB4gju+1Vnkf2976hUG1LCJSCQptkQlb9dxfG0AlqA947gaKuOZPUu/KrjyfMJOH7zOPdNdtXt7/2NXNslwlYtE01+VdNbE4fzfXVpGcuyL92m+P50da26PL4tmrDU8Zu1jn25plVRi8M7yd7q3iyQ6+fq76bPSgx/rpxqGc8KGYLBewPT1i5uLwy4yIqlzcFio6R35bn2gfGkZ8sZ2MIIFBiaH247NkJWe969zxXZBy887x1ckLenAzGCa1xFu8DAmX2dQ7K9I5q/KpNSH9DysgWtG371vPcrvz2TdtZzyNZ8bTKqmtbi6W7MM5iZ/OOj68tTxtR/vtE5NQF7eP8XJ3pwu0HjAeJ3JMzYyTc8SBP63O+/Fsu6nHl4sbFZi57825rLorrtxFHm22nGEe3j4j6GkSgFBTTsxOymcwWzw9RDzpyv8ZqhIT9vJQ4UMpX+awD95khXbf+GCNKoBjfWvGybXetkM/nWH7EMy6m9vNSVv0NKSP7Prc792l+EN5CMPkmO4PPIx7MJROfta1WmGeqzH22Hrq2qGBEjbsIRfivbjrInFg+qyKf56BoYoyHZV7OuaGfbbQeD2/Kq+f52EJjzpeF3TflwsaFzCn5AEB7bniTy9O4c+eiDf+888A8Ju4eR/PY5ugIAQTKEWofqnN+QpYD1f8EVvMk2alrw/JJj/5bqVNpz4H7dFY5McmPZTzvfKIEimzKZ1vewdC2F76G9DekjOqhNZGOT/TV+2Ccj5suFyh64ZB3e7xPdnXpb4qgQP9He9vtSc6uAHKdSP+a8WAYR4wHVSXiCbFywR9zXW6GXW+olwYD88oaF9u5Zfpk/d2ciyL6rdr+zDiyesJhJAEESiQwikMAAhCAwAEClkA5UJsqDySAQHlg0OkyBCAAgdsJIFBuR156gwiU0iN4l//q44VWfXYsPz/e+nW3Q9zlHu1A4FYCjId43AiUeGYPr4FAeXgC0H0IQAACtxBAoNyCuaZGECg1RZO+QAACEIAABCohgECpJJB0AwIQgAAEIFATAQRKTdGkLxCAAAQgAIFKCCBQKgkk3YAABCAAAQjURACBUlM06QsEIAABCECgEgIIlEoCSTcgAAEIQAACNRFAoNQUTfoCAQhAAAIQqIQAAqWSQNINCEAAAhCAQE0EECg1RZO+QAACEIAABCohgEApMJBfff2rAr3GZQhAIIQA4zuEEmWeQACBUmCUv/jymwK9xmUIQCCEAOM7hBJlnkAAgVJglJnACgwaLkMgkADjOxAUxaongEApMMRMYAUGDZchEEiA8R0IimLVE0CgFBhiJrACg4bLEAgkwPgOBEWx6gkgUAoMMRNYgUHDZQgEEmB8B4KiWPUEECgFhpgJrMCg4TIEAgkwvgNBUax6AgiUAkPMBFZg0HAZAoEEGN+BoChWPQEESoEhZgIrMGi4DIFAAozvQFAUq54AAqXAEDOBFRg0XIZAIAHGdyAoilVPAIFSYIiZwAoMGi5DIJAA4zsQFMWqJ4BAKTDETGAFBg2XIRBIgPEdCIpi1RNAoBQYYiawAoOGyxAIJMD4DgRFseoJIFAKDDETWIFBw2UIBBJgfAeColj1BBAoBYaYCazAoOEyBAIJML4DQVGsegIIlAJDzARWYNBwGQKBBBjfgaAoVj0BBEqBIWYCKzBouAyBQAKM70BQFKueAAKlwBAzgRUYNFyGQCABxncgKIpVTwCBUmCImcAKDBouQyCQAOM7EBTFqieAQCkwxExgBQYNlyEQSIDxHQiKYtUTQKAUGGImsAKDhssQCCTA+A4ERbHqCSBQCgwxE1iBQcNlCAQSYHwHgqJY9QQQKAWGmAmswKDhMgQCCTC+A0FRrHoCCJQCQ8wEVmDQcBkCgQQY34GgKFY9AQRKgSFmAiswaLgMgUACjO9AUBSrngACpcAQM4EVGDRchkAgAcZ3ICiKVU8AgVJgiJnACgwaLkMgkADjOxAUxaongEApMMRMYAUGDZchEEiA8R0IimLVE0CgFBhiJrACg4bLEAgkwPgOBEWx6gkgUAoJ8c+//a0wv3ICM8fy7+/+9/8K6QVuQgACPgL2eGZ8+whx7okEECiFRP2HP/mlkBOX+/uDH/+skB7gJgQgsEWA8b1FhvNPJoBAKST63/7bf6/EiRQr3/zi14X0ADchAIEtAozvLTKcfzIBBEpB0XffZXH3pKDg4SoEdggwvncAcflxBBAoBYXcfZfF3ZOCgoerENghwPjeAcTlxxFAoBQWcvMui7snhQUOdyEQQIDxHQCJIo8hgEApLNTmXRZ3TwoLHO5CIIAA4zsAEkUeQwCBUmCov/r6VwV6jcsQgEAIAcZ3CCXKPIEAAuUJUaaPEIAABCAAgcIIIFAKCxjuQgACEIAABJ5AAIHyhCjTRwhAAAIQgEBhBBAohQUMdyEAAQhAAAJPIIBAeUKU6SMEIAABCECgMAIIlMIChrsQgAAEIACBJxBAoDwhyvQRAhCAAAQgUBgBBEphAcNdCEAAAhCAwBMIIFA+HOX2j/9SfOe73+cXBuRARTkgxzU/EIDAOQIIlHP8TteW4uSLL7/hFwbkQEU5IMc1PxCAwDkCCJRz/E7XRqAgzhCo9eUAAuX01IgBCAgEyoeTAIFS3+KE4CCmCJQPT6w0XwUBBMqHw4hAYTFD0NSXAwiUD0+sNF8FAQTKh8OIQKlvcUJwEFMEyocnVpqvggAC5cNhRKCwmCFo6ssBBMqHJ1aar4IAAuXDYUSg1Lc4ITiIKQLlwxMrzVdBAIHy4TAiUFjMEDT15QAC5cMTK81XQQCB8uEwIlDqW5wQHMQUgfLhiZXmqyCAQPlwGBEoLGYImvpyAIHy4YmV5qsggED5cBgRKPUtTggOYopA+fDESvNVELhcoAyvVjRNJ3oxiL6Tx41omla8hpHX0IuuNefltUa03UuYyxPVvhvtCDG8OtEqO2/KT+Y70ba6nGq77cSrH6QRZaPrpxZMDdG79tuXkFUWP8qfRqzrL0pFv0CgsJghaOrLAQRK9FRIBQisCFwuUMQoLLquEY1a6AcxDMMoQHrRSaFhn+9H8dE6ImW085KCp+1EL23I363yQohettm0onv1uqwq/xJdK0WQbMcSSgrFIF5KzLRKxCj7Qz+fs0UKAoX/K6ai/ysGUZRWFCFQVmsNJyAQTSCRQNEixF7fpWdSXCix4bqpFn9HPIyCQIoZ144WQc7djLcCYhRGjkDRd3ucdpVvo3C5+naJ228h1P9gy2KRdrGAL3zvzgEEimey4xQEIgkkEyhxa7sWEIs6AYKjnT43Gu+e+MTMCGQtRnZEiGpfflSV9oePeFg87148aS99ziFQ0s6bWH8GgUQCxXdX4h1QLVBswaHvkmzZccvviA3ZtNqDYttzbTj+rco71y96iUBJv1iwIMP47hxAoFw0QWLm0QRuFyiD3OPRtYtNr3ojbSPOCpRFfTesK8GhBYpp2//XFjSuwWteI1BYPO9ePGkvfc4hUK6ZH7HybAK3ChT9MUsjWvXNGmsjq/xmj/w2j/WRzX13UGw/xo24ZkPusNr9cnm2IFDSLxYsyDC+OwcQKJdPlRh8IIEbBYpHhEzAPdfUHpCtOxjr8uobPFfuQZl8S3uAQGHxvHvxpL30OYdASTtvYv0ZBG4XKIuNsCPj6c7K4Tso6jvG6pkqPvtCaEGzeB6L2pZintniCbb8OnMnn+aS9geBkn6xYEGG8d05gEBJO29i/RkEbhQoG88ckftRuu7kRzw6WNvPQZHPRnn/HJSunz/eMQ+YW4idt98qOp4sCBQWz7sXT9pLn3MIlONzIjUhYAjcKFBkk4PaIDtvSB0fqjbe4Ti+B8V0Z1g9FVY+d2V+kqzvI6N1Hb1Hxrl3gkDhQW08qI0cCMwBBIqZk/kLgeMErhcox31JW/Ptnpa0Tb+zzh2U9O9muWMA47tzAIHybtbjGgTCCNQjUNQj8H13SDSIvU20YbiuL4VAYfG8e/GkvfQ5h0C5fq7E4vMI1CNQ5MdH4/+rs/y/ePRzV9wNsrmEGoGSfrFgQYbx3TmAQMllhsWPkglUJFBkGMb9JPb/ZtzITbie/504k6ghUFg87148aS99ziFQMplgcaNoApUJlPJigUBJv1iwIMP47hxAoJQ3F+NxfgQQKB+OCQKFxfPuxZP20uccAuXDEyvNV0EAgfLhMCJQ0i8WLMgwvjsHECgfnlhpvgoCCJQPhxGBwuJ59+JJe+lzDoHy4YmV5qsggED5cBgRKOkXCxZkGN+dAwiUD0+sNF8FAQTKh8P4e9/7MyEnM35hQA7UkwNyXPMDAQicI4BAOceP2hCAAAQgAAEIJCCAQEkAFZMQgAAEIAABCJwjgEA5x4/aEIAABCAAAQgkIIBASQAVkxCAAAQgAAEInCOAQDnHj9oQgAAEIAABCCQggEBJABWTEIAABCAAAQicI4BAOceP2hCAAAQgAAEIJCCAQEkAFZMQgAAEIAABCJwjgEA5x4/aEIAABCAAAQgkIIBASQAVkxCAAAQgAAEInCOAQDnHj9oQgAAEIAABCCQggEBJABWTEIAABCAAAQicI4BAOceP2hCAAAQgAAEIJCCAQEkAFZMQgAAEIAABCJwjgEA5x4/aEIAABCAAAQgkIIBASQAVkxCAAAQgAAEInCOAQDnHj9oQgAAEIAABCCQggEBJABWTEIAABCAAAQicI4BAOceP2hCAAAQgAAEIJCCAQEkAFZMQgAAEIAABCJwjgEA5x4/aEIAABCAAAQgkIIBASQAVkxCAAAQgAAEInCOAQDnHj9oQgAAEIAABCCQggEBJABWTEIAABCAAAQicI4BAOceP2hCAAAQgAAEIJCCAQEkAFZMQgAAEIAABCJwjgEA5x4/aEIAABCAAAQgkIIBASQAVkxCAAAQgAAEInCOAQDnHj9oQgAAEIAABCCQggEBJABWTEIAABCAAAQicI4BAOceP2hCAAAQgAAEIJCCAQEkAFZMQgAAEIAABCJwjgEA5x4/aEIAABCAAAQgkIIBASQC1NpN/+Cd/Ib7z3e/zCwNygBwgByrNATnP5/aDQMktIhn6I8XJb/76D/iFATlADpADleaAnOdz+0Gg5BaRDP1BoCDOEKjkADlQdw4gUDJcfHFpnwACpe6JiYWH+JID5AACZX8tpESGBBAoTF4sYOQAOVB3DiBQMlx8cWmfAAKl7omJhYf4kgPkAAJlfy2kRIYEEChMXixg5AA5UHcOIFDk4ju8RNu04jVkuBLjkpcAAqXuiYmFh/iSA+QAAgWB4hUAuZ9EoDB5sYCRA+RA3TmAQLlIoAyvVrTcgrlN1yBQ6p6YWHiILzlADiBQLhIofdcgUG6TJ0I9OZIJjAmMHCAHyIF6cwCBcolAGcSrRaDcqE8QKJU+OZLFpt7FhtgS29gceJRAGfpOtG0jmmb8bVvR9cP2JtmhF13bzuWbRrTdS9h7aeVHO5M9Y7dpRNdby3WAHVW675StRV3LDIczAT7iYbKLnewoT86QA2XlwGMESt9JIdGK7tWLYRj0b/8Snbzz0XWeb/H0opOCo32Jfiovy+lzs0iRtvrxDspse15KQ+0IIRAoM7adIwRKWRMNCwPxIgfIgdgceIZAebvwjwLC+ZqxvNvStJ2wb4SoNVPZcr+SvP0RT5ydnVWZyxMBBAqTXexkR3lyhhwoKwceIVDkBlZ5J2S+6zGtc+pAf0zjio5lmfmVFjTLj2G2Bcpczz3y2XHL8HqLAAKlrImGhYF4kQPkQGwOPECgaPHQLBXFct2LelCbFhbLrxQfFyhLO0u3eLVNAIHCZBc72VGenCEHysqBxwiUt0JgQ6CovSVdq/edWBtg5abYpb33AiXczvaCzJUlAQRKWRMNCwPxIgfIgdgceIxAib2DYr6d07adePXz5lcpNuTm2VCBEmdnuQjzapsAAoXJLnayozw5Qw6UlQMPECjyyzGxe1B8IsQslr5rW3dQfGXf2THX+LtHAIFS1kTDwkC8yAFyIDYHHiFQ3n99V4sI+RXk+Un1+pxv28p0R2QuLP+3wY0HtcXa2VuWuW4IIFCY7GInO8qTM+RAWTnwDIGiHjEiH84W+hwULTiUaOnHZ6bIZ53I/Shdt/kRT9N08zNT1FeGIu28/Tq0WZr5KwkgUMqaaFgYiBc5QA7E5sBjBIpc1DafJCvknQ77DooqrQTJ/JTYUdyosu4eFGlcP/TNlJ/3qAzhdhAoweoLgcJkFzvZUZ6cIQfKyoFHCZTg1Y+C2RNAoJQ10bAwEC9ygByIzQEESvZLMQ76CCBQmOxiJzvKkzPkQFk5gEDxrX6cy54AAqWsiYaFgXiRA+RAbA4gULJfinHQRwCBwmQXO9lRnpwhB8rKAQSKb/XjXPYEEChlTTQsDMSLHCAHYnMAgZL9UoyDPgIIFCa72MmO8uQMOVBWDiBQfKsf57IngEApa6JhYSBe5AA5EJsDCJTsl2Ic9BFAoDDZxU52lCdnyIGycgCB4lv9OJc9AQRKWRMNCwPxIgfIgdgcQKBkvxTjoI/A73/vT9Xj7mUC8wsDcoAcIAfqywE5z+f20+TmEP5AAAIQgAAEIAABBAo5AAEIQAACEIBAdgQQKNmFBIcgAAEIQAACEECgkAMQgAAEIAABCGRHAIGSXUhwCAIQgAAEIAABBAo5AAEIQAACEIBAdgQQKNmFBIcgAAEIQAACEECgkAMQgAAEIAABCGRHAIGSXUhwCAIQgAAEIAABBAo5AAEIQAACEIBAdgQQKNmFBIcgAAEIQAACEECgkAMQgAAEIAABCGRHAIGSXUhwCAIQgAAEIAABBAo5AAEIQAACEIBAdgQQKNmFBIcgAAEIQAACEECgkAMQgAAEIAABCGRHAIGSXUhwCAIQgAAEIAABBAo5sEvgRz8ddstQAAIQgAAEIHAlAQTKlTQrtfXFl99U2jO6BQEIQAACuRJAoOQamYz8QqBkFAxcqYIAdyWrCGNVncgxJxEoVaVYms4gUNJwxepzCTCmnhv7XHueY04iUHLNloz8yjFxM8KDKxCIJsCYikZGhcQEcsxJBErioNdgPsfErYErfXguAcbUc2Ofa89zzEkESq7ZkpFfOSZuRnhwBQLRBBhT0ciokJhAjjmJQEkc9BrM55i4NXClD88lwJh6buxz7XmOOYlAyTVbMvIrx8TNCA+uQCCaAGMqGhkVEhPIMScRKImDXoP5HBO3Bq704bkEGFPPjX2uPc8xJxEouWZLRn7lmLgZ4cEVCEQTYExFI6NCYgI55iQCJXHQazCfY+LWwJU+PJcAY+q5sc+15znmJAIl12zJyK8cEzcjPLgCgWgCjKloZFRITCDHnESgJA56DeZzTNwauNKH5xJgTD039rn2PMecRKDkmi0Z+ZVj4maEB1cgEE2AMRWNjAqJCeSYkwiUxEGvwXyOiVsDV/rwXAKMqefGPtee55iTCJRcsyUjv3JM3Izw4AoEogkwpqKRUSExgRxzEoGSOOg1mM8xcWvgSh+eS4Ax9dzY59rzHHMSgZJrtmTkV46JmxEeXIFANAHGVDQyKiQmkGNOIlASB70G8zkmbg1c6cNzCTCmnhv7XHueY04iUHLNloz8OpO43/zi1+KHP/llRr3BFQiEEfj7f/oP8aOfDuLff/M/YRUiSp0ZU3YzjC+bxnOO/+Ff/lP87d/9q/jNf/3usk5flZOXOSSEQKBcSbNSW0cSV06cP/jxz4Ss++d/88+VkqFbNROQAkXmr/y9WqgcGVM2a8aXTeN5xyY3/+iv/lEJlStE9NmcTBEFBEoKqpXZjElce+KU9eQvAqWyhHhId8wiYPJY/r1KqEhbR34YX0eo1VcnRW4ezcmUdBEoKelWYjskcaWCN3dMZHl+YVBzDnz19a9Oje6QMWU3wPhiPIWOp6O5GZuTdn6mOkagpCJbkd3QxJWTqHyH6Q4k7qBUlAwP6orvXarMZXn+7E/omLLbYXzZNJ59nCI3j+Rk6iggUFITrsB+bOK6EykCpYIkeGAX7EXgKmFiMMaOKVNP/mV82TSeeZwiN8/kZKooIFBSka3I7tHENRMpAqWiZHhQV+QicLUwMfiOjilTX/5lfNk0nnWcIjevyMmro4BAuZpohfbOJu6VX4WrEC9dypRAyrw9O6ZsZCn9tNvhOB8CKWJ+ZU5eRQqBchXJiu3kmLgV46ZrDyDAmHpAkAvrYo45iUApLIk+4W6OifsJDrQJgasIMKauIomdqwjkmJMIlKuiW7GdHBO3Ytx07QEEGFMPCHJhXcwxJxEohSXRJ9zNMXE/wYE2IXAVAcbUVSSxcxWBHHMSgd3Xi4QAAAunSURBVHJVdCu2k2PiVoybrj2AAGPqAUEurIs55iQCpbAk+oS7OSbuJzjQJgSuIsCYuookdq4ikGNOIlCuim7FdnJM3Ipx07UHEGBMPSDIhXUxx5xEoBSWRJ9wN8fE/QQH2oTAVQQYU1eRxM5VBHLMSQTKVdGt2E6OiVsxbrr2AAKMqQcEubAu5piTCJTCkugT7uaYuJ/gQJsQuIoAY+oqkti5ikCOOYlAuSq6FdvJMXErxk3XHkCAMfWAIBfWxRxzEoFSWBJ9wt0cE/cTHGgTAlcRYExdRRI7VxHIMScRKFdFt2I7OSZuxbjp2gMIZD+mhpdom1a8BisYvnPW5WIOU/cjtf1EoHPMSQRKomDXZDbHxK2JL315HoHsx5RvkfWdKzF0qfuR2n4i5jnmJAIlUbBrMptj4tbEl748j0D2Y6rQRTYok1L3LbX9oE7GF8oxJxEo8XF8XI0cE/dxQaDDVRHIfkwVusgGJUnqvqW2H9TJ+EI55iQCJT6Oj6uRY+I+Lgh0uCoC2Y+pQhfZoCRJ3bfU9oM6GV8ox5xEoMTH8XE1rkzc4dWKdrHzrgyc0u+m68twtlIvQ3PnylhdacsOy5VjyrYbezz0nWjbRjTN+Nu2ousHIXyLrO+cGMSra+f6TSPathPSxPJnEH3Xita0s1Vu6EXXOva6l3DNqbg0neiFtqv9X27qjeqbcnYQ/atzfHx5+qJ7Fm9/SSS3V7nkpM0FgWLT4NhL4MrEDV1kvI5cfVJOuO168rusmdT2L3O0DEOhuXOlqLjSlk35yjFl2405loKhaVrRvXoxDIP+7V+iaxvRdnKhXi74PtHSd41olCAZ6w/9KFikeDA/g3gpEdSKV2+VM+cm9dGLTgqYVooC488oGNxx2neiaTrRqfat8mOT0X2TQsv489ZH3UC8fcMi37855KRLB4HiEuH1isCViRu6yKycSHFCTnLuxHdlO6ntX+lrAbZCc+dKUXGlLRvxlWPKtht8rBb4RvhvCo5CYVeg6HJ+G5Ynqi1H7KjLur65oyrvSCixY1XVxaQYceqP/nvH74G+qTi7bajGR+Fid/KAfbdLOb7+eE56oCBQPFA4tSRwZeK6i4x8BybHvp4g9G3m1rmlOyxuu8p3fNNbLuWoutVq3zru5I3f+ce0adqQE6J652fVke/G5nd8c11zpOpak9Se3+/sD+O7VPu2unxn+f5HT5SWC7q4nCytk3t+6UrubXkP0zfMz8bD76Omb8dynQf640G7jL4DsGTnxkr2eVlH3iFY5si6jP6ow2dLMzz375Vj6ognKj/fiHM9VhxRsPqIJ0ygqLasHI3319POG5EQ3zePCLGdVG3N80O8fdtYvsefzkkfGQSKjwrnFgSuTFw58Zl3TLIROdi7rtOfe8sT6jPoZi6jJkXrM+3x+jTfmcljWqNG8TEV0OJH3rJWt7Ltnsm6byZpu6i7UO36rTu3tq/81be6jX0pWORn85bL5pL1N0KgvOMpEcsY2Av08FK31qf23zF/d830WYq9N/FYsxvbf72sGOn+2rmi/G5d3+WeBStfxv7Zok0E5Ii3jBRpcj/EBMYKx8nDK8dUvCs7C7I0uBIj/nNqXDQyJvpjlrUv6ziuy+ydWd5pUaXNOJryzNg40jePfWNO/l2wOGLfNpbv8Wdz0s8FgeLnwlmLwJWJqxYZ6w6IejfiLABq0jPCQU5EzvXZNT1ZrC/LCWd+x6Mn0fn1VF/aNu1MJ/0HyobV0K7f0szK/pa/vrKuHxt1HT5Bfrmm3UXdsbko/u7a+Dm+hWmsuoyHz0d1zo2Fw2+RF7ZTRjSN55ax2uAmbJ+2yujz2/lnOxF3fOWYimtZltb9ssXfysZiUR6v+s5Ja+qO4LyxdblJdmfxdxoexj0s9mZac6dx4a/MjTcfySzKOm0sBYe8qH007fj/mrtJB9m5PmT4+rM56QeCQPFz4axF4MrElYuHPXnIhcl+rZpdLEx6V7/eyGc5JQ+dhWm+ulxwlgvWXGotIKxrzqFrY99vj+jY9Fc2JidJMwk6jauXyz5NJRzBEOTXVHk+WPbvDXPpp/ymh9pYOddXR5v9W/ru83HZ/mh3kQfjnR9L3M6tL9ktbIX4tFlGt1mrQHnbL8XEyUffuTkI+kgKDLXZ1LwhCFjQRxsqbuO3e169tXFX3jWV5+3Y7wiUuL4Z+3abZjPv/HfsoO7fWoXPJEI4zaWzObpynr+qUwiUq0hWbOfKxJWTkD3R+BarlXAY7K//Wfsl1ERgfUVysadk/shksWDZcXIWQPuSe+zaCPLbta/8NRO328JykXWvmne9q3lRtmGdDPJr/Grm4uulkp1lR2wxl45tXQuMh89Hl6/qv8PPzZ2ZkVwE58V0YSvEJ1nGvXszGl/Ymhs8fXTlmDrijIzBu7uHqt+uYFYsZ87b7eoF36STasu82KxkRMLqM5vpDoc9b+iP5Py+xPdNi6hF/m/6qT+Wjmb3xl4ulz6dkz4OCBQfFc4tCFyZuO4i41usVgLF9mZ8h6bnOzmpbS34c6XNRcZZAOca6yPXRpDfK/vv/JXX/BOu9mZ5F2LyMFqgjO9o5R6UYV4M3P5N9uXBgvniinPtXf/mej523vYdfrLMYpGaTC7ZLW0F+KQWXn8eLW1NDZ4+uHJMHXJGst3c9ySZSeHv5KMjUOTGY+9Crco5bxBcW8pp3Y6OqT726RgVg+A7KOOdy8i+6Tb8OSDno8WerSPsDgXp3kofz0lPdxEoHiicWhK4MnHlRGAvMr7F6q1AUZ/sGBsbi/bSff0NId/MtzXBOvXlS3ehCvJ7Zf+Nv6uyayd8bcpz9js/X5kFz43F2O2f27obN/v6fO1N/6wKPh+97TtMVBnfnQ5ZzhKqS1shPm2V0edtvlY3Th1eOaaOOqJy59RzUEYhYz+3ZNzEbsfD3P1Tgmf1jBEjCkbWUsjYZeTD3eSm7xiBojSKFljBz3ixnoMiH1Rnngujn3cyiy3DOpqdqZjx3xxy0sWDQHGJ8HpF4MrEnRcz3YxvsbIXVLPYTO/1x8+jJ71hFqepgHxTL799YSa+tbiYOqgWwLncdN5zYPwwl/b8VuV89pW/R77FM/bD+oaM7Kf8BpS9gO77Zd6pzsA0r/nbKqavUwmL+btrU58tH+U5Nx4+H41dw3eyZQkSWWb1bSzP/oSVrdAcWfitn1Cqnmo6JdvCu1MvrhxTZxzRsbE+JjVPkvXtiXLuoKh2lSCZN8jKuzL6Gz2uV5qnvfl1uZlWlvd9/V09KzZaoChrW0/J9fVNd8bzJNlOCSa3N8fs+6zkcy6XnLSJIFBsGhx7Cfz82996zx85qRYZa7Obb7GyBYqctMy7GL273tqDMjqgJllr/4k78a0WrMlx865NTtDvhYprY99v2ciGffm1XrWRcFwY2k5YSCbv1gdLFvK2s9oobC3iQX4t2h95ykV8WoiX7SyfNfLumvZ4Lx4+H12+ypISePOTfmU91WW58EzxHh/NbsHy2drzSVZflhntLrhYjZw8zHExONklqhdOIMecRKAUnlS4DwEIlEcgx8WgPIp4fCWBHHMSgXJlhLEFAQhAIIDAlXclA5qjCAR2CeSYkwiU3bBRAAIQgAAEIACBuwkgUO4mTnsQgAAEIAABCOwSQKDsIqIABCAAAQhAAAJ3E0Cg3E2c9iAAAQhAAAIQ2CWAQNlFRAEIQAACEIAABO4mgEC5mzjtQQACEIAABCCwSwCBsouIAhCAAAQgAAEI3E0AgXI3cdqDAAQgAAEIQGCXAAJlFxEFIAABCEAAAhC4mwAC5W7itAcBCEAAAhCAwC4BBMouIgpAAAIQgAAEIHA3AQTK3cRpDwIQgAAEIACBXQIIlF1EFIAABCAAAQhA4G4CCJS7idMeBCAAAQhAAAK7BBAou4goAAEIQAACEIDA3QQQKHcTpz0IQAACEIAABHYJIFB2EVEAAhCAAAQgAIG7CSBQ7iZOexCAAAQgAAEI7BL4f+AQcuUPl2TUAAAAAElFTkSuQmCC;" vertex="1" parent="WIyWlLk6GJQsqaUBKTNV-1">
          <mxGeometry x="-59" y="261" width="361.22" height="195" as="geometry" />
        </mxCell>
        <mxCell id="DoFTSAxEe7CcOIMFSdf3-8" value="" style="shape=image;verticalLabelPosition=bottom;labelBackgroundColor=default;verticalAlign=top;aspect=fixed;imageAspect=0;image=data:image/png,iVBORw0KGgoAAAANSUhEUgAAAq8AAAE9CAYAAAAlJ4tIAAAgAElEQVR4Ae3dv8sE0XfX8f0v8gcIVmmshC0lrUIaQbTe2IgQa0ljF4S1sZJAqlSCjUsshW8VhEQCptgvkoCCgoEgKQwhjNz5sXtn5u4+M7MzO3NnXg887K97zz33fc6e+9m7M7Onwh8CCCCAAAIIIIAAApkQOGXiJzcRQAABBBBAAAEEECiIV0mAAAIIIIAAAgggkA0B4jWbUHEUAQQQQAABBBBAgHiVAwgggAACCCCAAALZECBeswkVRxFAAAEEEEAAAQSIVzmAAAIIIIAAAgggkA0B4jWbUHEUAQQQQAABBBBAgHiVAwgggAACCCCAAALZECBeswkVRxFAAAEEEEAAAQSIVzmAAAIIIIAAAgggkA0B4jWbUHEUAQQQQAABBBBAgHiVAwgggAACCCCAAALZECBeswkVRxFAAAEEEEAAAQSIVzmAAAIIIIAAAgggkA0B4jWbUHEUAQQQQAABBBBAgHiVAwgggAACCCCAAALZECBeswkVRxFAAAEEEEAAAQSIVzmAAAIIIIAAAgggkA0B4jWbUHEUAQQQQAABBBBAgHiVAwgggAACCCCAAALZECBeswkVRxFAAAEEEEAAAQSIVzmAAAIIIIAAAgggkA0B4jWbUHEUAQQQQAABBBBAgHiVAwgggAACCCCAAALZECBeswkVRxFAAAEEEEAAAQSIVzmAAAIIIIAAAgggkA0B4jWbUHEUAQQQQAABBBBAgHiVAwgggAACCCCAAALZECBeswkVRxFAAAEEEEAAAQSIVzmAAAIIIIAAAgggkA0B4jWbUHEUAQQQQAABBBBAgHiVAwgggAACCCCAAALZECBeswkVRxFAAAEEEEAAAQSIVzmAAAIIIIAAAgggkA0B4jWbUHEUAQQQQAABBBBAgHiVAwgggAACCCCAAALZECBeswkVRxFAAAEEEEAAAQSIVzmAAAIIIIAAAgggkA0B4jWbUHEUAQQQQAABBBBAgHiVAwgggAACCCCAAALZECBeswkVRxFAAAEEEEAAAQSIVzmAAAIIIIAAAgggkA0B4jWbUHEUAQQQQAABBBBAgHiVAwgggAACCCCAAALZECBeswkVRxFAAAEEEEAAAQSIVzmAAAIIIIAAAgggkA0B4jWbUHEUAQQQQAABBBBAgHiVAwgggAACCCCAAALZECBeswkVRxFAAAEEEEAAAQSIVzmAAAIIIIAAAgggkA0B4jWbUHEUAQQQQAABBBBAgHiVAwgggAACCCCAAALZECBeswkVRxFAAAEEEEAAAQSIVzmAwE4I3K+X4nw6Fafwf7kVxf1anE/n4nrfyQRNo01gSnyn9GmP+v7R0vbfj374V9WAw6fAMABT3qdT+gzzZlIr4nUSNp0Q2BiB26UUrefrrbjfa7W6sWKzMWL5uzMlvlP6jCG1tP0xvhytrRpwtIhPn++U9+mUPtM9/LEn8fojIg0Q2D6B+/VcnE6X4vYFV8NYZ9u5XyD9wxBTFpMpfX5wo/Xy0vZbg3kQE1ADYhr7vT9L/Z3yPp3SZ8EwEK8LwmUagW8RuF1Oxel8Lb5xhEAYi3j9VmTfjDNlMZnS540LvZeWtt8b0BMNATWgIbHv21nq75T36ZQ+C4aCeF0QLtMIfIvA9xaue3E9E6/fiuvbcaYsJlP6vHWi8+LS9jvDefgkoAY8Wez33kz1d8r7dEqfBQNBvC4Il2kEliZQfVVYn6TVnKzVnKSVKDbPrxbvxe0SDjUIfZuTuu7F9fFcZfN8vhS3xyG0Tfv2eOHcsMF/5XF5zXidXqW/p6Jlr2xfHQ7ROhnldCrOlxc7zfdbcTm3fU23fT/fyrshbULLe3GLT5gL/p2vD3aPmZZz/Hk+91t08t2ruUbxLduf47ici0s4/vkxcH0n6tN+aaD/jZngXzze+VxcQqK8tN8ezaP5CKgBCZaDa0DoW9XCx8mu5Xv3Wfee1ke0G1wLqlp4v12LS/x+OvXfv+k4d+rl0HlH79Nv144nz8/uEa+f8dMbgZUJ3MsTtJpdl9u9elw6FRWoh5O1GLzUhxk07YPIqWyEol3ZuN9vtZhtjqUNz9/qndfqxLDHyWGPAX64M1G8XsMxvaWQrn1rxF3vUIlbcQmCvBSO79v+PN8hTMJ8q92Q8kPALWJXLkYdoV7H5BI+JLyYz23oXFu26sWujt1DSHf5pHJijP9lnoQPBu3xmsX3fAmiuzPnH1LCy58SqHJODWg4Dq8Bw9+7Q9/jQ9uFslFfDeYaTrZtv5/S798Q53f1d8S8V6odTYTmuCVe56DIBgIrE2gWrtZOW1Mc4ydL8Zg6PrYqfK1dz+ScPvzaapJ4Tflbqqhy5zj2OewilKKw63tv3CHzHdImrEGVmOufw1YvZC0Hw4KVns9jZ6UrOMNcev43i1/YbW0+XHQmXca/uzNTL5hRTozyv/SjY/MxbL14Eq8PIt+8owZUtIfXgBfvq9JMlcuPY/tT779Eu1Hvpfr9Oer9W3/QfPgVJdioeU8ZO7GejJpv5Oscd4nXOSiygcDKBMYuXLGeqlwfJtSanYpU8RyE4OUi8BRjLd8GiKVhvnTn132c8n5Im4RAjU2V/kfisl40kj7Xr7Xm39hKvfbOVt2vzIvYYNkn3hkd538yzxofyxC+EvJRI3cXIZCMTS/ejWBLfQAZku/B9XU+wMZp/ARY+Zx8Pz0b1ff68+u9P3p9qieGtRv3Xqp2Xt+dP5CyN4V9f94/j11/6xRD7+VSyr8IYLf2RS/NcZd4nYMiGwisTGDcwhWLl6fjzafocHxoOHQg/TeleEaWJonXtL9FMX7hihe5IfP9uc0PPnQLfvk4JRwa8f5+rvFa8vja8VWoGjEZ7+R2/fmJYav9D4tVCHOrfRR3dxcnoAb8hLj7Xh1ay4a269rv+NN9b5SPX9SCumtZf+L376QPDgm/ur50XA0Pe2P3+iTsxnZ67eMXP79PvH7OkAUEVicwx8IVJlEdu/g82Sk+Yaua5NBC/gLJF8Rrc6xufAJGdWJaf5fj5/n+xKQq4I399G0kSN8tWG+LfTXOJPEaH1bQG2OM/wNi37P/Ig88PTsBNeCJdFgN+EF8PcyNa5euAc3JlN1aED1+jPe8U314jr65+UG8Dpv3sA+ZvbF77+0xteM5p7nuEa9zkWQHgRUJzLVwtaZQnxzQPiZrgIBpGek8WFi8VgU3nOl/Ka6350lloaiHE7nindeOZ0GlliejtefbadVr09iNx2pO2nrePqyUC8CL3Zbe4vDoFb7rLf2fJF7jnZveGGP8r2Jf/vRw7Fp8v2c/ftH9JQmoARXd4TVgaC0b2m7Me6kRkC9qQZ0o5Vzi9+8b8Tp83s3YA4RzPHbvvT1yvjMnP/E6M1DmEFiDwCILVzmRrmgaWshfUHgnXsvXOsX8XfveV95NMU19j/7utdjX7nzj15r7cZsBgq7pFm7LBaAzx+b13uLQvBBu4zHr52tbrwV5wrfeGIk28bCd+8k8i9pUC+j7RTFq7u6MBJKx6cW7OeZ1TIy6ubefGlAya30iTAdkWLtx76WmFox6/74Ur1WM0rYSr61QO9Jkpz9LvE5npycCmyHw6cJVnamauG5qXeSe9f3Dhetl0awL/6kj7CaI16evz/A8diXqSwIMme+QNmGEynb81d5z3HCVgPMlut5qj2fUtnztlajoCoinEH65U5waKzHGKP9THzAeU6h8fF43+PGCO18goAYEyIn3Sc2+WwPC09VzqfdcW/CNazeuFrx8/ybfa6/q77h5N8L55dhL1I6Z3wPE68xAmUNgDQKfLlxN0W9dH7W84HX3UkyNyIyvBztuxqWv4bqG3WuiXi79r8ZHidfGt3NxjW1fzkW4/mj7sIFaaMXXg+3Nd0ibMPfnuM85PX8EoiWmU4tCgy8hLJuXmvj0bZ2L5pqxzzlHPzjQ6tAI3u5iPcL/cuMu5ET7upSu8/qM1Fr31IBA/pnLz/dDdb3qfg140768RnMsQl/YfdNuWC0I76Pwgx9xPXzz/n3Mr1t/X/iXrH3POvDt2jHne4N4nZMmWwisRODzhSsUtPQvUzW/sPWY2r39azDpr6oerRN3ur9aFQp4+Ko/sXswSryGoVK2w85nZbvl65D5DmlTzjBacOpfOquOu+0cwjC7eK0W2LBLnPzFqy79lwJ5oP+1vdfjBc5dcdx1wuMlCKgBDdURNaDsMuKXs4IYrN/f4cSs/gmtweDA91JUC16/n5o5Rbcv6++IeZdjr1M7opl8dJd4/QifzggggAACCCCAwEgCkXgd2VPzoiiIV2mAAAIIIIAAAgh8kwDx+hFt4vUjfDojgEB5UtL5XB63FY7devXfPfwSOQQQ2AmB8rCV1+/9piaoAVG8idcIxvi7xOt4ZnoggAACCCCAAALTCRCv09k5bOAjdjojgAACCCCAAAIIfJmAndcvAzccAggggAACCCCAwHQCxOt0dnoigAACCCCAAAIIfJkA8fpl4IZDAAEEEEAAAQQQmE6AeJ3OTk8EEEAAAQQQQACBLxMgXr8M3HAIIIAAAggggAAC0wkQr9PZ6YkAAggggAACCCDwZQLE65eBGw4BBBBAAAEEEEBgOgHidTo7PRFAAAEEEEAAAQS+TIB4/TJwwyGAAAIIIIAAAghMJ0C8TmenJwKbI/C7v/9nm/OJQwgggMBUAmraVHL77ke87ju+ZncwAr/2m7842IxNFwEE9kxATdtzdKfPjXidzk5PBDZHQKHfXEg4hAACHxBQ0z6At+OuxOuOg2tqxyOg0B8v5maMwJ4JqGl7ju70uRGv09npicDmCCj0mwsJhxBA4AMCatoH8HbclXjdcXBN7XgEFPrjxdyMEdgzATVtz9GdPjfidTo7PRHYHAGFfnMh4RACCHxAQE37AN6OuxKvOw6uqR2PgEJ/vJibMQJ7JqCm7Tm60+dGvE5npycCmyOg0G8uJBxCAIEPCKhpH8DbcVfidcfBNbXjEVDojxdzM0ZgzwTUtD1Hd/rciNfp7PREYHMEFPrNhYRDCCDwAQE17QN4O+5KvO44uKZ2PAIK/fFibsYI7JmAmrbn6E6fG/E6nZ2eCGyOgEK/uZBwCAEEPiCgpn0Ab8ddidcdB9fUjkdAoT9ezM0YgT0TUNP2HN3pcyNep7PTE4HNEVDoNxcSDiGAwAcE1LQP4O24K/G64+Ca2vEIKPTHi7kZI7BnAmranqM7fW7E63R2eiKwOQIK/eZCwiEEEPiAgJr2AbwddyVedxxcUzseAYX+eDE3YwT2TEBN23N0p8+NeJ3OTk8ENkdAod9cSDiEAAIfEFDTPoC3467E646Da2rHI6DQHy/mZozAngmoaXuO7vS5Ea/T2emJwOYIKPSbCwmHEEDgAwJq2gfwdtyVeN1xcE3teAQU+uPF3IwR2DMBNW3P0Z0+N+J1Ojs9EdgcAYV+cyHhEAIIfEBATfsA3o67Eq87Dq6pHY+AQn+8mJsxAnsmoKbtObrT50a8TmenJwKbI6DQby4kHEIAgQ8IqGkfwNtxV+J1x8E1teMRUOiPF3MzRmDPBNS0PUd3+tyI1+ns9ERgcwQU+s2FhEMIIPABATXtA3g77kq87ji4pnY8Agr98WJuxgjsmYCatufoTp8b8TqdnZ4IbI6AQr+5kHAIAQQ+IKCmfQBvx12J1x0H19SOQeCPfvkXRfMfCn1zP9z+1V//zTEgmCUCCOyGQFzD1LTdhHXWiRCvs+JkDIHvE/it3/mTIhT47v9v/Os//L4zRkQAAQQ+JKCmfQjwAN2J1wME2RT3TeCX/+Mve8I1CNlf/PH/2ffEzQ4BBHZJQE3bZVhnnRTxOitOxhBYh0B3p8Ku6zpxMCoCCMxDQE2bh+NerRCve42seR2KQHenwq7rocJvsgjsjoCatruQzjoh4nVWnIwhsB6BZqfCrut6MTAyAgjMR0BNm4/l3iwRr3uLqPkclkCzU2HX9bApYOII7IqAmrarcM46GeJ1VpyMIbAugd/9/T9b1wGjI4AAAjMSUNNmhLkjU8TrjoJpKggggAACCCCAwN4JEK97j7D5IYAAAggggAACOyJAvO4omKaCAAIIIIAAAgjsnQDxuvcImx8CCCCAAAIIILAjAsTrjoJpKggggAACCCCAwN4JEK97j7D5IYAAAggggAACOyJAvO4omKaCAAIIIIAAAgjsnQDxuvcImx8CCCCAAAIIILAjAsTrjoJpKggggAACCCCAwN4JEK97j7D5IYAAAggggAACOyJAvO4omKayfwLnv//Pi1/51V/3j4EckANZ5UCoXf4QmIsA8ToXSXYQ+AKBIFx/7Td/4R8DOSAHssqBULv8ITAXAeJ1LpLsIPAFAsQr4e7DixzIMQeI1y8sEAcagng9ULBNNX8CxCvhkqNw4bO8JV7zX3+2NAPidUvR4AsCPxAgXokAQlAO5JgDxOsPxd3LowgQr6NwaYzAugSIV8IlR+HCZ3lLvK67duxtdOJ1bxE1n10TIF6JAEJQDuSYA8Trrpemr0+OeP06cgMiMJ0A8Uq45Chc+CxvidfpdV/PPgHitc/EMwhslgDxSgQQgnIgxxwgXje7rGTpGPGaZdg4fVQCxCvhkqNw4bO8JV6PumotM2/idRmurCKwCAHilQggBOVAjjlAvC6yJBzWKPF62NCbeI4EiFfCJUfhwmd5S7zmuOJs12fidbux4RkCPQLEKxFACMqBHHOAeO2Vc098QCA78Xq/novT6VLcintxu4T7p+J0OhfXe03hfisu5+b58NqpOF+uRfPyg9XtUtspivv1UpxLO2/aP8xfivO5aleOfb4U19s9GCltXG6PEZoexa1r/3wtQpfWX+nPqej3b7Xy4OAEiFfCJUfhwmd5S7wefPGaefrZideiFp2Xy6k4lSLwXtzv91qc3opLEKHx87damJ47Ara2cw1i+HwpbsFG+H/VviiKWxjzdC4u11vVtmx/LS7nIJDDOJGILgN1L66l0D2XAre0f789n4sFLPE6c2rv0xzxSgQQgnIgxxwgXve5Jq01q0zFayVQY+0XAAbhWQrRLs1SGHaEZS0Wg9Dt2qkEcmcX9K24rEVzR7xWu8SdcUvfalFrm7UbKY9/IEC8Ei45Chc+y1vi9Yfi7uVRBLIVr+N0XyUuW30GiNHz41iEetc1JXRr3H2h+oNALccPhz/4Q2A4AeKVCCAE5UCOOUC8Dq/zWv5MIFPxmtrNfDfZSrzGYrTaXX1lp9v+ByEahi6PeY3tdW10/Ou177zuIQIJAsQr4ZKjcOGzvCVeEwXdU5MJ7E683sMxpZdz6wSs6qSuU/GpeG317yLvidFKvDZjp29jsds16DECfQLEKxFACMqBHHOAeO3Xc89MJ7Ar8Vp9dX8qzuUVAKKTqsIVCMJVB6LDAL638xr7UZ8U1pwcdu8dbTs9knoeggDxSrjkKFz4LG+J10MsUV+b5I7Ea0KgPjAmXiuPOX2189lvX15pYM5jXh++uYPAcALEKxFACMqBHHOAeB1e57X8mcDuxGvrpKx6/o8d2ck7r+V1ssprxqbsF0UldlvXmy0Pg22uSZsIRLgk1yVcrdYfAsMJEK+ES47Chc/ylngdXue1/JnAjsTri2uqhuNfL5cPDxuoQL6+zmu49uv767xebs9DBpofV2gJ4bdXP/g5kFocgwDxSgQQgnIgxxwgXo+xRn1rljsSrwHZvTxZ63lyVP2DAvXO6PRjXptw3Hu/lhWuK/v8ha3UYQj9PtUxuZ09V+K1gez2DQHilXDJUbjwWd4Sr28Ku5dGE8hPvI6e4pc6vD2G9ks+GGb3BIhXIoAQlAM55gDxuvvl6asTJF6H4i5/Nja1s1oZ+OmErqHDaIfAOwLEK+GSo3Dhs7wlXt9Vdq+NJUC8Dib2PKb2co0uf3WrrivbPVlrsFkNERhBgHglAghBOZBjDhCvIwq9pj8SIF5/RBQ3qI9fPZ/KKw9Ux9aGE8Kuxa1zCGvcy30E5iJAvBIuOQoXPstb4nWuVYCdQIB4lQcIZESAeCUCCEE5kGMOEK8ZLTQZuEq8ZhAkLiLQECBeCZcchQuf5S3x2lRxt3MQIF7noMgGAl8iQLwSAYSgHMgxB4jXLy0SBxmGeD1IoE1zHwSIV8IlR+HCZ3lLvO5jDdrKLIjXrUSCHwgMIEC8EgGEoBzIMQeI1wEFXpPBBIjXwag0RGB9An/r7/7jIiwC/jGQA3IgpxwItcsfAnMRIF7nIskOAggggAACCCCAwOIEiNfFERsAAQQQQAABBBBAYC4CxOtcJNlBAAEEEEAAAQQQWJwA8bo4YgMggAACCCCAAAIIzEWAeJ2LJDsIIIAAAggggAACixMgXhdHbAAEEEAAAQQQQACBuQgQr3ORZAcBBBBAAAEEEEBgcQLE6+KIDYAAAggggAACCCAwFwHidS6S7CCAAAIIIIAAAggsToB4XRyxARBAAAEEEEAAAQTmIkC8zkWSHQQQQAABBBBAAIHFCRCviyM2AAIIIIAAAggggMBcBIjXuUiygwACCCCAAAIIILA4AeJ1ccQGQAABBBBAAAEEEJiLAPE6F0l2EEAAAQQQQAABBBYnQLwujtgACCCAAAIIIIAAAnMRIF7nIskOAggggAACCCCAwOIEiNfFERsAAQQQQAABBBBAYC4CxOtcJNlBAAEEEEAAAQQQWJwA8bo4YgMggAACCCCAAAIIzEWAeJ2LJDsIIIAAAggggAACixMgXhdHbAAEEEAAAQQQQACBuQgQr3ORZAcBBBBAAAEEEEBgcQLE6+KIDYAAAggggAACCCAwFwHidS6S7CCAAAIIIIAAAggsToB4XRyxARBAAAEEEEAAAQTmIkC8zkWSHQQQQAABBBBAAIHFCRCviyM2AAIIIIAAAggggMBcBIjXuUiygwACCCCAAAIIILA4AeJ1ccQGQAABBBBAAAEEEJiLAPE6F0l2EEAAAQQQQAABBBYnQLwujtgACCCAAAIIIIAAAnMRIF7nIrlhO3/vH/zT4ld+9df9YyAH5IAckAOr5EBYh/whMBcB4nUukhu2E4Trn//Lv+MfAzkgB+SAHFglB8I65A+BuQgQr3OR3LAd4pVw9+FFDsgBObBmDhCvGxYJGbpGvGYYtLEuE68WrTUXLWPLPzkgB4jXsSu39u8IEK/v6OzkNeLVwkE8yAE5IAfWzAHidSeCYiPTIF43Eogl3SBeLVprLlrGln9yQA4Qr0uu8sezTbweIObEq4WDeJADckAOrJkDxOsBxMYXp0i8fhH2WkMRrxatNRctY8s/OSAHiNe1FMA+x92feL1fi/PpXFzv+wzYlFkRrxYO4kEOyAE5sGYOEK9TVm99XhEgXl+R2dHzxKtFa81Fy9jyTw7IAeJ1R6JiA1MhXhNBuF/PxXlHW7fEq4WDeJADckAOrJkDxGtCbHhqMgHiNYHudjkRr36FZpVfoVlzcTE2cSMH5MBSOUC8JsSGpyYTIF576O7F9Uy8LlXA2LU4ygE5IAeOlwPEa09seOIDAtmK1/vtUpzPp+J0qv/P5+JyuxfFqxO27rficj4/259OxflyLeLzusLhAg97jd3TqbjcIsID7JStb5fSVqtvZOabdx02cLyFgjgQczkgB7aUA8TrN1f9/Y+VpXi9XYLIPBeX66243+/V/+1aXMKO6eWSuNrArbgEMXq+FrdH+9Cueu4pYIOtW73z+rT9TIOhdoqiIF597e7QCzkgB+SAHChzgHh9Kgn3PieQn3h9Kwprcdm5VFbYpT2dL0W8gVqiK211L6v1+rCBcXY+D85cFuy82oHZ0g4MX+SjHDheDhCvc63o7AQC2YnXcDJV2EF97pa2A1l99d8VpO02z0eV2G1/tf9avD77de+l7HTbrPeYeD3eQkEciLkckANbygHidT0NsMeRMxOvlbA8tdVmOy6vjnltt6ofVaKzfVms6eK1bSc54CpPEq8WsS0tYnyRj3LgeDlAvK6y/O920CzF61uR+EK8lseyXs7Vca7RyVjhBK22vffidbid7eQM8Xq8hYI4EHM5IAe2lAPE63Y0wR48yVK8jt15ba4icD5fiuvteSJWEKLhRK6h4nWcne2kB/FqEdvSIsYX+SgHjpcDxOt2NMEePMlMvIaT+Mce85oSqE3oUq+92nlNtX1np3lt/Vvi9XgLBXEg5nJADmwpB4jX9bXAnjzITry+vwRVJTDDZbSev+5aPZc6TPaxk/psXBTFe/E63M520oR4tYhtaRHji3yUA8fLAeJ1O5pgD57kJ17LS6iGHyYYep3XSoyWgvZWXxM2XMs1HP96ubw8bOB0ujyvCVte2mCknbeX9Ppu6hCvx1soiAMxlwNyYEs5QLx+d93f+2hZitcQlJe/sFWEndZ457VsXYrV569n1cK3bNs95jUYr37woGn/PCb2PtwO8eri5C5OLgfkgByQA36kYO9KcoX5ZSteV2CV7ZB2Xu3AbGkHhi/yUQ4cLwfsvGYrITbpOPG6ybDM6xTxeryFgjgQczkgB7aUA8TrvOv60a0RrwfIAOLVIralRYwv8lEOHC8HiNcDiI0vTpF4/SLstYYiXo+3UBAHYi4H5MCWcoB4XUsB7HNc4nWfcW3Nini1iG1pEeOLfJQDx8sB4rW1LHvwIQHi9UOAOXQnXo+3UBAHYi4H5MCWcoB4zUEt5OMj8ZpPrCZ7SrxaxLa0iPFFPsqB4+UA8Tp5CdcxQYB4TUDZ21PE6/EWCuJAzOWAHNhSDhCve1MW686HeF2X/1dGJ14tYltaxPgiH+XA8XKAeP3Kcn+YQYjXA4T6b//df1SEwuEfAzkgB+SAHFgjB8I65A+BuQgQr3ORZAcBBBBAAAEEEEBgcQLE6+KIDYAAAggggAACCCAwFwHidS6S7CCAAAIIIIAAAggsToB4XRyxARBAAAEEEEAAAQTmIkC8zkWSHQQQQAABBBBAAIHFCRCviyM2AAIIIIAAAggggMBcBIjXuUiygwACCCCAAAIIIBo4CtYAABIISURBVLA4AeJ1ccQGQAABBBBAAAEEEJiLAPE6F0l2EEAAAQQQQAABBBYnQLwujtgACCCAAAIIIIAAAnMRIF7nIskOAggggAACCCCAwOIEiNfFERsAAQQQQAABBBBAYC4CxOtcJNlBAAEEEEAAAQQQWJwA8bo4YgMggAACCCCAAAIIzEWAeJ2LJDsIIIAAAggggAACixMgXhdHbAAEEEAAAQQQQACBuQgQr3ORzMDOb//ePQMvuYgAAggggAACCLwmQLy+ZrO7V37tN3+xuzmZEAIIIIAAAggciwDxeqB4E6/7Drad9X3H1+wQGEJAHRhCSZvcCRCvuUdwhP/E6whYGTYV3wyDxmUEZiagDswMlLlNEiBeNxmWZZxS1JbhuhWr4ruVSPADgfUIqAPrsTfy9wgQr99jvfpIitrqIVjUAfFdFC/jCGRBQB3IIkyc/JAA8fohwJy6K2o5RWu8r+I7npkeCOyNgDqwt4iaT4oA8ZqistPnFLWdBraelvjuO75mh8AQAurAEEra5E6AeM09giP8V9RGwMqwqfhmGDQuIzAzAXVgZqDMbZIA8brJsCzjlKK2DNetWBXfrUSCHwisR0AdWI+9kb9HgHj9HuvVR1LUVg/Bog6I76J4GUcgCwLqQBZh4uSHBIjXDwHm1F1Ryyla430V3/HM9EBgbwTUgb1F1HxSBIjXFJWdPqeo7TSw9bTEd9/xNTsEhhBQB4ZQ0iZ3AsRr7hEc4b+iNgJWhk3FN8OgcRmBmQmoAzMDZW6TBIjXTYZlGacUtWW4bsWq+G4lEvxAYD0C6sB67I38PQLE6/dYrz6SorZ6CBZ1QHwXxcs4AlkQUAeyCBMnPyRAvH4IMKfuilpO0Rrvq/iOZ6YHAnsjoA7sLaLmkyJAvKao7PQ5RW2nga2nJb77jq/ZITCEgDowhJI2uRMgXnOP4Aj/FbURsDJsOnd8/+iXf1H8i3/7xxmS4DICxyUwdx04Lkkz3zIB4nXL0ZnZN0VtZqAbMzdXfH/xx/+n+Gf/5r8Wwd5cNjeGijsIbIbAf/vT/1uED4pz/XnPzkWSnS0TIF63HJ2ZffukqAVB81u/8ycze8RcisC/+49/Wvz7//w/i7/6679JvfzyuU/iG4yGGP/Gv/7Dh2gN9j61+dJZLyCAQEngP/3B/y7fZ+FbjjlErPesxDoCAeL1CFGu5zilqMWC5p/8q/9yIFrrTfW3f+9eLmb/8Lf+YJSInRLfMMv/9ef/Lylag73wHxbVNf5/9/f/rNj6f/iQEQTH1v9DjP1tk0AjXuP32ycidmod2CYdXiGQJkC8prns8tkxRS0WrU1RJV6/kxaNeG24DxWxY+LbnUkQN91xm/HXEmZbF67Bv3/7H/77KsJ+7IeJ8N5t4rnl27DzP3Zua7SfMzfDN1qpmIR5TRGxwZY/BPZOgHjde4Sj+Q0paj/twqWKrOeqHcqlOQQR+24xGxLfKB2Sd1MiNtnQkwgsQOCX/+MvN7+LHd6DxOsCwWcSgREEiNcRsHJvOlTcpARM6Gvn9TsZkNoBHbILMzS+Q2YR58CQ9toggMA0Ag4bmMZNr2MTIF4PFP+x4iYWMMTr9xIlFq9DRGvj2dj4Nv3e3YYc8IcAAssRaMTrmPf6O2+WqAPvxvMaAmsQIF7XoL7SmFOLWiNi7bx+J3BBvE5ZyKbG9zuzMgoCCKQIuFRWiornEHhPgHh9z2dXr34qbv78//7VrnhsdTJTOX8a363y4BcCCAwnoA4MZ6VlvgSI13xjN9pzRW00sqw6iG9W4eIsAosQUAcWwcroxggQrxsLyJLuKGpL0l3ftviuHwMeILA2AXVg7QgY/xsEiNdvUN7IGIraRgKxkBviuxBYZhHIiIA6kFGwuDqZAPE6GV1+HRW1/GI2xmPxHUNLWwT2SUAd2GdczapNgHht89j1I0Vt1+Etf6Vn3zM0OwQQ+ImAOv8TIa/vgQDxuocoDpyDojYQVKbNxDfTwHEbgRkJqAMzwmRqswSI182GZn7HFLX5mW7JovhuKRp8QWAdAurAOtyN+l0CxOt3ea86mqK2Kv7FBxffxREbAIHNE1AHNh8iDs5AgHidAWIuJhS1XCI1zU/xncZNLwT2REAd2FM0zeUVAeL1FZkdPq+o7TCo0ZTEN4LhLgIHJaAOHDTwB5s28XqggC9S1O7X4nw6F9d7BDL1XPRyNneXnsfM9heJbzbB4igCCAQC6oA8OAIB4vUIUa7nuEhRSwmw1HM5cl56HjPbXyS+OcaNzwgcmIA6cODgH2jqxOuBgr1IUZtZgG0qHEvPbWb7i8R3UwHhDAII/ERAHfiJkNf3QIB43UMUB85hkaI2swAbOJXvNFt6bjPbXyS+3yFd3K/n4nS+FvHRJ/HQt8vp7es/9W9slXYut+bhYrffGmfMBIYyGmNT2+0RyLkObI8mj7ZKgHjdamQW8GuRojazAFtg2tNNLj23me0vEt/p9Mb1vF2KU/fY6YeFe3E9n358/dw68PrR2Z2aAPF6jFTIug4cI0RmOQMB4nUGiLmY+KSo3W+X4lwKiCAiwi7Yubjc7kWREmCp54p7cb2cq76h/+lUnM+XIpho/92L2+VcnOs2L9vdb8Xl3LF36e/clQv26VLcispu6XtHJI2aW+nsvbhdLx0fr4m5VDMbb79NZOijT+I7dIzl2t2Ky+lUJDdFQz6dr8X1ciqSAjWZb0M9rYRxctyhJmZvt4xP84vXZfx84lza/nOkPd3Luw7sKRLmsiQB4nVJuhuzPbWoBTEZdsUu11txv9+r/9u1uJxPxfkSRNzPVxuovvYNYrXuf7/VYjYIy+avWqzKHbhb1K6361YJnfA188NeENelqO4I2HJH71Jc6q+dH+3rIUfPLYjwxp+3PlYDjLffsBh/OzW+40dapserr9pL0XW5VYcWpFRmHeNnHo3x741oHmNm1rbL+DS/eF3GzyfKpe0/R9rTvdzrwJ5iYS7LESBel2O7OcuTilopDF7siBXV4tL7ure3EzZwEXr51XHVv9l1CzuZp7Br2yWc6l/7nzyesn4tpYeKF3OrdnI7Yr30oxa1sbEJ9rtTGvN4UnzHDLBw27S4inbfyrzqx70nekvuoV3Yna93+etDCuK2VSzrbxKanf74uNvwASve3W++bRjAIR4nNH/OrfMNxPnSuszcjz6lvsG4vN71j119+NCbV9uH4HvzXov7l/frGFzDMcoNs+Z2LLt79QH4YSdi8ZbDm/hWPg6L273z7Un4Nuna/SoojFXOqx+3qv6Eb2Gib4pKGz1qX30i9zrwVVgGy5YA8Zpt6MY7PqWolYtwvCh1hq0WmY6Ymyheuwt+Z6gBDxMi+Y2AHD+3hECNvXosqtWT4+3HxsbfnxLf8aMs2KOXN6Xqi3b2IyH7cONVzM/FOSFG+jmW6F/abp5/Htdyv13L3f2Xwu7hU1H0xilF0KU81OUpkJpDWTrvn/qDU/w5qDJd+XQOu9CPsV7ZeDR43KnEa9eHoig/DMbfnnTy+GGg6M6rYRS3CPeb5yMve+zqNtFxyuXhNeUhPo29xk7zuL4t/UvHd9jYzZzbhy0FMdv7IP4ibuW3L+Gbn0t9+FTpWiVkezY67i/9MPs6sDQg9ndBgHjdRRiHTWJ8UftBrIVhfxQclW+NyD2Xu0TPRe3peTXWEGHw7NO9Vy12LRv1QhetkXWnKXNL2I9daLGYYj82Nv7++PiOH2PZHokcKMXD81CQnigsmXd2Y8vn0ruHvf4PodWeWb9d/XqZT53x2l3LR73+Zb/UNxipnEqLttLmiw+SvfESPjXvwf57oRalD9vp8Z/CsDGebvfSl5hdKm6N2cdt2n5Vc4bGtzYWj/2w373zIv9Sx2LXOXbqfcJ44XN3qAUf518HFoTD9G4IEK+7CeXPExlf1BLFvDtMWcQ7O0ep54LOLY+TfX7d2D5hqyr6LeHZHSt6fK+PmY1P7Gq+fmzZKBetjn+lnSlzq3xsxknfNmNNsR9NcMLd8fGdMMjCXbrCJzzuxfMhsuKv4yPHXuRfaNG13xdkZav3J4/Fu5TRsPHd3jgvxVMqT1ICKPVcNOJL+8821c7r84PA85USTHGKdj17/ofGYYyI/UfsavFXnvTZciR+8GLOL+P7on0w+bJPPF4iP15yfTVWKp7tMZZ+tIc6sDQj9vMnQLzmH8PBMxhf1KpC3N9diIZMLQqp56Iu5d3yuLtwvGGzizW86Fc7SNXVCq636CSycAWCcBWDeGupXHwaQRk7MWVujf14zObEsudtNcoU+7F/4++Pj+/4MRbv0RILgXc3dvFzL3LmTf71RVkV0/YGWvVc+sNJdYxsu32fSm+c1rzi9qk5vPbp5bjlnJv3Umz/eb9837wy0GWWsBfm1HpvJXeth7OrDhMIPM9F+huZFId3QnT42IFK98P0I94xo5dxC2N1c7O0Wp7Q2eb0jME37u2iDnwDlDGyJkC8Zh2+cc5PKWrlItzabWmPmfwqsrsQtrtEj9qLU2/Bj1o+71Z90otD4rWX4rX7VelzhOZef24DBGnTudnlG8su6j/27pT4jh1j+faRKAixS/B7iqiobexYQng1L/dzrMqZWK+kdxQbC8Nue+O8FEEbFa/1VTUe77Pke3oeduW3KM3JU614p+w34jUl1F+0T4SsjE8Qn+UVQ54NhsctjEW8Psm5h8B3CRCv3+W96miTxE256KaO1QtTqRaL3gkKnYWuujpA4uvKst3Tdl8sNriqcaqF9PUCVfXv7A69Ea/l16Cp49nKYdNzq8ZILZzV16qtk2mmsGumPOF2UnwnjLNsl6eYK1m3VWU59OP5wLcldmrPPhavTx+mznW4CEqNlcrxql0CR+VimWsv8vKB5c2vmCX6l5xrvg/mLSCv/XyI3lb7nx507XUfPyZSnB/f2MQ2Uyzj15v7L+w2HzhjyAkulZVgg3htiLpF4NsEiNdvE19xvKniptmlmH6d12qxCELjcZ3V8kcG4sMGAphq8SnFcO8aqs3C/KJN+GGDy2XEYQNVIEbPLfIxHK/XXPe2up7rU4g3YR5vv+k5/nZqfMePtGyPSihdy69fYx3xGLUWp+XlmlINPhavb3blg+2UYH44V92ZX7y+8Sklujr+hIcl16TgShzrWfZvBNor4ZwWgeXcU4widsGX8EGv/dcVn2n71fGrTT1oWxgy9uvjX+s6FftFvLYBe4TARggQrxsJxDfc+ETclMenpX5hq9x97exAlOKh+1z6F7G6l1UMAjYIwfhErPaJXYFU55qLzQ8o1DvBrV2fcvHp+NKBPWpuZd/UL2xd+teIrMcZb7/j4MCHn8R34BDfaVbmT/eDTTx08wGm/2GhbFX2fyNuYnGSyplgpPahtZNef+Bq5VfsVnR/DvHaH6cSVy2fHr8cl55v5FL9Iw/hUlnxJaLeX94pzKP6IZKU/dqf+BjzoezqGhGfsFV+Q9MS1+/sp/wZGrc6f+JLjtW/2Ff+imCcH8RrnELuI7AZAsTrZkKxvCO7ETfLo8pyhP3EN7ED1olItYv4TsCkX+uJylLvxD/1G/WrBc3jRJ7wIan/aavjWfWwN85LEdTdbaz6ty+gH/nU++AWxGXikJyEV9WO9i2cqfT48YZybi0x2+lY+t05FCdq8tLPAeyqE6aqE+AaP/o6OBGbNx9OStcGjB0YtH+AohL0w+MWcjT1oTgdzwjZ4nf3UwcWR2WAjAkQrxkHb6zritpYYnm1F9+84pWFt/UOaVdUZuH7QZ1UBw4a+INNm3g9UMD/6Jd/caDZHm+qFq3jxXzpGfd2IpcekP2PCagDHyNkIAMCxGsGQeIiAkMIWLSGUNJmKIHqGNT4kIWhPbVbk4A6sCZ9Y3+LAPH6LdLGQWBhAnbWFwZ8FPP1ca6n86VwuEB+QVcH8osZj8cTIF7HM9MDAQQQQAABBBBAYCUCxOtK4A2LAAIIIIAAAgggMJ4A8TqemR4IIIAAAggggAACKxEgXlcCb1gEEEAAAQQQQACB8QSI1/HM9EAAAQQQQAABBBBYiQDxuhJ4wyKAAAIIIIAAAgiMJ0C8jmemBwIIIIAAAggggMBKBIjXlcAbFgEEEEAAAQQQQGA8AeJ1PDM9EEAAAQQQQAABBFYiQLyuBN6wCCCAAAIIIIAAAuMJEK/jmemBAAIIIIAAAgggsBKB/w+j0vXSpLVELAAAAABJRU5ErkJggg==;" vertex="1" parent="WIyWlLk6GJQsqaUBKTNV-1">
          <mxGeometry x="-69" y="493" width="405.26" height="187" as="geometry" />
        </mxCell>
      </root>
    </mxGraphModel>
  </diagram>
</mxfile>
